<svg width="26" height="20" viewBox="0 0 26 20" fill="none" xmlns="http://www.w3.org/2000/svg">
<path fill-rule="evenodd" clip-rule="evenodd" d="M4.32654 4.79057C4.32654 4.49141 4.6418 4.2489 5.0307 4.2489L20.9693 4.2489C21.3582 4.2489 21.6734 4.49141 21.6734 4.79057C21.6734 5.08972 21.3582 5.33223 20.9693 5.33223L5.0307 5.33224C4.6418 5.33224 4.32654 5.08972 4.32654 4.79057Z" fill="#505050"/>
<path fill-rule="evenodd" clip-rule="evenodd" d="M4.32654 15.3041C4.32654 15.0049 4.6418 14.7624 5.0307 14.7624L20.9693 14.7624C21.3582 14.7624 21.6734 15.0049 21.6734 15.3041C21.6734 15.6032 21.3582 15.8457 20.9693 15.8457L5.0307 15.8457C4.6418 15.8457 4.32654 15.6032 4.32654 15.3041Z" fill="#505050"/>
<path fill-rule="evenodd" clip-rule="evenodd" d="M4.32658 10C4.32658 9.70087 4.64185 9.45835 5.03075 9.45835L20.9693 9.45835C21.3582 9.45835 21.6735 9.70087 21.6735 10C21.6735 10.2992 21.3582 10.5417 20.9693 10.5417L5.03075 10.5417C4.64185 10.5417 4.32658 10.2992 4.32658 10Z" fill="#505050"/>
</svg>
